<svg width="155" height="19" viewBox="0 0 155 19" fill="none" xmlns="http://www.w3.org/2000/svg">
<g clip-path="url(#clip0_2217_190)">
<path d="M59.6327 7.52446C57.0295 7.45652 54.1722 7.35462 54.1722 5.48098C54.1722 4.15353 55.6008 3.54076 58.259 3.54076C61.5679 3.54076 65.4382 4.5788 67.7701 6.29891L68.6374 2.65489C65.9259 0.936141 62.4539 0 58.6212 0C54.1001 0 50.2312 1.36141 50.2312 5.68614C50.2312 10.0109 54.4262 11.2024 59.3802 11.3383C63.2505 11.4402 65.0947 11.6101 65.0947 13.2785C65.0947 14.538 63.757 15.4579 60.5015 15.4579C56.3786 15.4579 53.4853 14.3682 50.6642 12.6318L49.7969 16.2405C52.1115 17.9769 56.7769 18.9986 60.1393 18.9986C65.4194 18.9986 69.0357 16.9212 69.0357 13.0394C69.0357 8.61277 64.949 7.65897 59.6327 7.5231V7.52446Z" fill="black"/>
<path d="M12.1866 11.3727C10.1981 11.3727 8.49815 8.23951 7.59336 0.374023H0V18.6254H3.9785V4.46098H4.34071C5.46196 12.2246 8.82573 15.1526 12.188 15.1526C15.5504 15.1526 18.9502 12.2246 20.0354 4.46098H20.3976V18.6254H24.4122V0.375382H16.8174C15.9126 8.24087 14.2141 11.374 12.188 11.374L12.1866 11.3727Z" fill="black"/>
<path d="M35.5839 0.375L25.4219 18.6264H29.8333L32.3933 13.9959H42.9334L45.4933 18.6264H50.0866L39.8871 0.375H35.5839ZM34.3703 10.4198L37.6633 4.4606L40.9564 10.4198H34.3688H34.3703Z" fill="black"/>
<path d="M80.0326 7.52386C77.4293 7.45593 74.5721 7.35402 74.5721 5.48038C74.5721 4.15294 75.982 3.54017 78.6588 3.54017C81.9865 3.54017 85.8553 4.56191 88.17 6.29832L89.0373 2.6543C86.3243 0.951851 82.8538 -0.00195312 79.0196 -0.00195312C74.4985 -0.00195312 70.6297 1.35946 70.6297 5.68419C70.6297 10.0089 74.8246 11.2005 79.7786 11.3364C83.6489 11.4383 85.4931 11.6081 85.4931 13.2766C85.4931 14.5361 84.1554 15.4559 80.8999 15.4559C76.7771 15.4559 73.8838 14.3663 71.0626 12.6298L70.1953 16.2385C72.51 17.9749 77.1754 18.9967 80.5377 18.9967C85.8178 18.9967 89.4341 16.9192 89.4341 13.0374C89.4341 8.61082 85.3474 7.65701 80.0312 7.52114L80.0326 7.52386Z" fill="black"/>
<path d="M134.094 0.375V3.91576H142.557V18.625H146.534V3.91576H154.998V0.375H134.094Z" fill="black"/>
<path d="M98.9823 0.375L88.8203 18.6264H93.2317L95.7917 13.9959H106.332L108.892 18.6264H113.485L103.287 0.375H98.9837H98.9823ZM97.7687 10.4198L101.062 4.4606L104.355 10.4198H97.7673H97.7687Z" fill="black"/>
<path d="M126.614 11.5774C131.026 11.2364 133.232 9.3981 133.232 6.02717C133.232 2.48641 130.483 0.375 125.964 0.375H114.5V18.6264H118.479V11.6467C123.759 11.5788 125.819 14.5408 127.99 17.8098L128.532 18.6264H133.378L131.642 16.1073C130.557 14.6427 128.532 12.3614 126.616 11.5788L126.614 11.5774ZM124.228 8.17256H118.477V3.91576H124.192C127.41 3.91576 129.146 3.9837 129.146 6.02717C129.146 8.07065 127.41 8.17256 124.228 8.17256Z" fill="black"/>
</g>
<defs>
<clipPath id="clip0_2217_190">
<rect width="155" height="19" fill="white"/>
</clipPath>
</defs>
</svg>
